/* XPM */
static char *result[] = {
/* columns rows colors chars-per-pixel */
"16 16 164 2 ",
"   c #04123E",
".  c #09163D",
"X  c #0C183E",
"o  c #15203F",
"O  c #28273B",
"+  c #31303F",
"@  c #5D4637",
"#  c #50413C",
"$  c #5D493B",
"%  c #714D2E",
"&  c #724F2F",
"*  c #6A4F37",
"=  c #624A39",
"-  c #624C3C",
";  c #0B1A42",
":  c #0E1C42",
">  c #0F1D46",
",  c #101B42",
"<  c #111C41",
"1  c #101D41",
"2  c #131E41",
"3  c #111E43",
"4  c #121F42",
"5  c #142042",
"6  c #132044",
"7  c #132144",
"8  c #162244",
"9  c #172244",
"0  c #142246",
"q  c #192443",
"w  c #1B2543",
"e  c #1D2440",
"r  c #1F2641",
"t  c #182244",
"y  c #182444",
"u  c #192544",
"i  c #1A2444",
"p  c #192547",
"a  c #1A2546",
"s  c #192647",
"d  c #1B2646",
"f  c #1D2544",
"g  c #1C2744",
"h  c #1D2745",
"j  c #1C2746",
"k  c #1C2747",
"l  c #1D2845",
"z  c #1D2846",
"x  c #1D2946",
"c  c #1D2947",
"v  c #1E2846",
"b  c #1F2846",
"n  c #1F2946",
"m  c #1A2948",
"M  c #262B42",
"N  c #202944",
"B  c #232A44",
"V  c #222A45",
"C  c #222B45",
"Z  c #232B46",
"A  c #222C47",
"S  c #242C45",
"D  c #272E45",
"F  c #242C46",
"G  c #282E45",
"H  c #242D49",
"J  c #242E48",
"K  c #252F49",
"L  c #262F48",
"P  c #242D4B",
"I  c #2E3349",
"U  c #29344E",
"Y  c #383742",
"T  c #333B4E",
"R  c #273150",
"E  c #2E3A5D",
"W  c #343D5B",
"Q  c #3E404A",
"!  c #39404F",
"~  c #39414F",
"^  c #3D404C",
"/  c #3D4755",
"(  c #464042",
")  c #404048",
"_  c #514743",
"`  c #544840",
"'  c #594B44",
"]  c #504C4C",
"[  c #5D5043",
"{  c #474F5B",
"}  c #4F5050",
"|  c #4E565F",
" . c #525152",
".. c #565552",
"X. c #5A5751",
"o. c #675D4F",
"O. c #6E5F49",
"+. c #735E46",
"@. c #755E48",
"#. c #73624A",
"$. c #766448",
"%. c #66635B",
"&. c #63655C",
"*. c #7E7054",
"=. c #4F5774",
"-. c #5A6163",
";. c #6A6F69",
":. c #6A7370",
">. c #7F7D72",
",. c #96632C",
"<. c #98672F",
"1. c #8E7247",
"2. c #8E7349",
"3. c #8E724F",
"4. c #8B754E",
"5. c #997B4A",
"6. c #807254",
"7. c #877A57",
"8. c #8D7D58",
"9. c #9E7F53",
"0. c #817F69",
"q. c #7E806E",
"w. c #96865D",
"e. c #AF8342",
"r. c #AD884B",
"t. c #AE8A4A",
"y. c #B98C46",
"u. c #B38D4B",
"i. c #A18152",
"p. c #A38653",
"a. c #AF8D51",
"s. c #A48F5D",
"d. c #B89D5F",
"f. c #8B8263",
"g. c #868268",
"h. c #A18E61",
"j. c #A29668",
"k. c #A59868",
"l. c #B19A68",
"z. c #B3A169",
"x. c #C7A35B",
"c. c #D0A65F",
"v. c #D2A959",
"b. c #C1A361",
"n. c #C1A362",
"m. c #CCB36C",
"M. c #CDB46D",
"N. c #D1B167",
"B. c #D3B367",
"V. c #D4B165",
"C. c #D5B365",
"Z. c #D1B86C",
"A. c #D5BA6C",
"S. c #DABD6D",
"D. c #A6A485",
"F. c #B3B490",
"G. c #B4B590",
"H. c #C6BF88",
"J. c #C9C088",
"K. c #D4C686",
"L. c #C8C190",
"P. c #CAC798",
"I. c #E0D795",
"U. c None",
/* pixels */
"U.U.U.U.U.U.,.9.P.I.S.U.U.U.U.U.",
"U.U.U.U.A.$.+ C H T X.5.v.U.U.U.",
"U.U.U.M.} > E R w 5 : #.a.e.U.U.",
"U.U.B. .  P =.W o a *.2.L 6.U.U.",
"U.U.8., z n g q 1 0.z.D ; / l.U.",
"U.C.] t j V # O :.H.~ 7 f J >.U.",
"U.b.Q n p Z & 3.G.{ < n z A %.U.",
"U.d.) n p b % c.D.3 i n v K ' U.",
"U.n.( r s S @ _ F.;.2 b h M $ U.",
"U.V.o.I 6 F G . | J.! 8 y ^ @.U.",
"U.U.h.-.k 9 c l X g.k.4 U q.p.U.",
"U.U.N.f...d 0 x u m w.O.&.j.U.U.",
"U.U.U.m.7.[ Y B N e ` t.s.u.U.U.",
"U.U.U.U.Z.1.* = - +.4.r.y.U.U.U.",
"U.U.U.U.U.U.<.i.L.K.x.U.U.U.U.U.",
"U.U.U.U.U.U.U.U.U.U.U.U.U.U.U.U."
};
