/* XPM */
static char *result[] = {
/* columns rows colors chars-per-pixel */
"32 32 182 2 ",
"   c #111C3F",
".  c #22263E",
"X  c #4A3F3D",
"o  c #4F423D",
"O  c #5B4639",
"+  c #66472F",
"@  c #654934",
"#  c #644C39",
"$  c #6D5137",
"%  c #68513C",
"&  c #725235",
"*  c #7D5934",
"=  c #785837",
"-  c #7E623F",
";  c #0D1C44",
":  c #121E42",
">  c #162244",
",  c #1A2646",
"<  c #1F2946",
"1  c #222A45",
"2  c #292F45",
"3  c #232D49",
"4  c #2B3145",
"5  c #29334B",
"6  c #27314E",
"7  c #323444",
"8  c #383641",
"9  c #3D3A42",
"0  c #343A4C",
"q  c #3B3E4B",
"w  c #343748",
"e  c #2B3452",
"r  c #353E5C",
"t  c #403D44",
"y  c #3D414D",
"u  c #3C4453",
"i  c #38405F",
"p  c #454246",
"a  c #4A4243",
"s  c #41434C",
"d  c #4C4B4D",
"f  c #44484F",
"g  c #554B45",
"h  c #534D4A",
"j  c #594B43",
"k  c #5F5144",
"l  c #55504C",
"z  c #5C544B",
"x  c #4F4F51",
"c  c #454D5A",
"v  c #424752",
"b  c #4D5157",
"n  c #5C5651",
"m  c #575856",
"M  c #5D5A53",
"N  c #565A5B",
"B  c #635242",
"V  c #63594D",
"C  c #615548",
"Z  c #785E40",
"A  c #725B40",
"S  c #635C53",
"D  c #73664D",
"F  c #6B685B",
"G  c #716B58",
"H  c #77705B",
"J  c #4B526F",
"K  c #575F63",
"L  c #585E7B",
"P  c #5C6569",
"I  c #616869",
"U  c #7D7862",
"Y  c #7A7661",
"T  c #797F75",
"R  c #8D5D2B",
"E  c #805B34",
"W  c #96622C",
"Q  c #9C6529",
"!  c #9C682C",
"~  c #8D6231",
"^  c #926835",
"/  c #9C733A",
"(  c #A36B2D",
")  c #A96E2B",
"_  c #A47235",
"`  c #AC7F3F",
"'  c #836743",
"]  c #866F4A",
"[  c #8E734A",
"{  c #907048",
"}  c #9A7647",
"|  c #8D7850",
" . c #847558",
".. c #907E58",
"X. c #907D54",
"o. c #A57E44",
"O. c #AB7E44",
"+. c #B3823B",
"@. c #9F804B",
"#. c #95835B",
"$. c #99865D",
"%. c #AE8247",
"&. c #AB894D",
"*. c #A3834F",
"=. c #B68B45",
"-. c #B58D4B",
";. c #B58844",
":. c #BC924B",
">. c #B6904C",
",. c #A98D54",
"<. c #A4915F",
"1. c #B59B5F",
"2. c #BAA15F",
"3. c #86846C",
"4. c #968C6C",
"5. c #9A9069",
"6. c #8A8D7A",
"7. c #98977A",
"8. c #A48F67",
"9. c #A69668",
"0. c #B29C64",
"q. c #BBA96C",
"w. c #B4AB7A",
"e. c #BEA671",
"r. c #C2964B",
"t. c #C69B4E",
"y. c #C39A52",
"u. c #C89F53",
"i. c #CAA459",
"p. c #D3AC5B",
"a. c #C0A361",
"s. c #C6AC69",
"d. c #CCB36B",
"f. c #D3B265",
"g. c #D9B565",
"h. c #DDB966",
"j. c #DEBF69",
"k. c #D2B76B",
"l. c #CEB174",
"z. c #D6BA75",
"x. c #E1BC67",
"c. c #E1BE6A",
"v. c #DCC06E",
"b. c #DFCA78",
"n. c #D9C273",
"m. c #E3C46E",
"M. c #EDC96B",
"N. c #E9CC74",
"B. c #E2C779",
"V. c #E9D078",
"C. c #929883",
"Z. c #80849E",
"A. c #A5A789",
"S. c #B5B18C",
"D. c #BEBA8A",
"F. c #ADAE90",
"G. c #9B9EB7",
"H. c #C3BF8C",
"J. c #BCC39E",
"K. c #DECA86",
"L. c #C9C699",
"P. c #D5CD99",
"I. c #D7D298",
"U. c #E7D280",
"Y. c #ECD681",
"T. c #E4D48C",
"R. c #E9DA8E",
"E. c #F5DD83",
"W. c #E2DB9A",
"Q. c #EADD96",
"!. c #F7E186",
"~. c #FDEC96",
"^. c #DFDEA7",
"/. c #DCD6A1",
"(. c #F2E9A4",
"). c #F3EBAC",
"_. c #F0E7AB",
"`. c #FFFBAA",
"'. c #F8F7B6",
"]. c #FAF9B7",
"[. c #FFFFBB",
"{. c None",
/* pixels */
"{.{.{.{.{.{.{.{.{.{.{.{.{.{.{.{.{.{.{.{.{.{.{.{.{.{.{.{.{.{.{.{.",
"{.{.{.{.{.{.{.{.{.{.{.{.W %.l._.].(.R.{.{.{.{.{.{.{.{.{.{.{.{.{.",
"{.{.{.{.{.{.{.{.{.:.+.) W } 8.S.L.I.R.E.v.:.{.{.{.{.{.{.{.{.{.{.",
"{.{.{.{.{.{.{.v.p.-.' t 7 1 < > < 5 v G <.:.r.y.{.{.{.{.{.{.{.{.",
"{.{.{.{.{.{.V.m...w < > , , 1 , < , > > , q { y.i.{.{.{.{.{.{.{.",
"{.{.{.{.{.N.n.M > , < < , 3 1 1 < < < < 1 ; l u.p.r.{.{.{.{.{.{.",
"{.{.{.{.m.d.f : , , 3 J L e < , < < < 1 : h :.y.V *.=.{.{.{.{.{.",
"{.{.{.m.k.y > < 1 , 3 Z.G.e < , < < < : l :.r.h ; w s.y.{.{.{.{.",
"{.{.g.c.M : 1 < < < 6 r r 3 < 1 1 , : m k.t.h > 1 : m V.%.{.{.{.",
"{.{.c.$.> 1 < < < < < < < 1 , 1 1 : x U.m.z > < < 1   7.B.{.{.{.",
"{.g.f.q 1 1 < < < < < , < < 1 < : b T.E.G : , 1 < < 1 0 W.-.{.{.",
"{.x.#.< 7 < < < < < < 9 t 4 , : c W.~.Y : 1 < < < < 4 . A.K.{.{.",
"{.x.S 7 4 < < < < < , * ) a : u ^.`.3.: , 3 , < 1 1 1 8 P ).{.{.",
"g.f.y p < < < < < < , * ( t e /.[.6.: , < < 1 < , , , p q P.O.{.",
"h.a.w z , < < < < < , * ( j 9.).C.: < < < < 1 < 1 < , d q 8.O.{.",
"h.1.w n , < < < < < , * Q O.z.L.2 : < < < < < < < < > h s ' _ {.",
"h.1.w V , < < < < < , * Q %.s.).C.: < < < < < < < < , h t & Q {.",
"h.q.w O , < < < < < < * ( C u I.'.N : < < < < < < < > g 9 * Q {.",
"g.p.q # 3 < < < < < , * O ,   I ].I.0 : < < < < < < , # 9 / ! {.",
"{.x.M O 9 , < < < < 1 8 , < < > C.`.w.> < < < < < < 2 # t =.{.{.",
"{.x.#.s  .> < < < < < , < < < , 3 H.~.U > < < < < > S n D r.{.{.",
"{.g.f.q A.u > < < < 1 < < < < < : v T.Y.x > < 1 , 5 S.u 2.;.{.{.",
"{.{.x...P D.< , < < < < < < < < 1 : F !.s.2 , < : 7.T G m.{.{.{.",
"{.{.g.c.m 4.9.> , < < < < < < < 1 < : 4.M.] > ;  .w.s b.:.{.{.{.",
"{.{.{.c.k.y 9.#.< > < < < < < < < < , 3 0.t.k D s.u q.g.{.{.{.{.",
"{.{.{.{.m.d.d | &.y > , , < < < < < < > w -.r.,.y 9.x.{.{.{.{.{.",
"{.{.{.{.{.N.n.m C %.' a 4 , , , , , 3 9 A o.:.*.0.j._ {.{.{.{.{.",
"{.{.{.{.{.{.V.v.| p % ^ ^ * & % $ * ~ ~ = B &.i.i.{.{.{.{.{.{.{.",
"{.{.{.{.{.{.{.v.p.-.Z o X O @ + @ % V H <.>.:.:.{.{.{.{.{.{.{.{.",
"{.{.{.{.{.{.{.{.{.:.+.( R { 4.F.J.P.W.!.v.=.{.{.{.{.{.{.{.{.{.{.",
"{.{.{.{.{.{.{.{.{.{.{.{._ ;.l.Q.(.T.n.i.{.{.{.{.{.{.{.{.{.{.{.{.",
"{.{.{.{.{.{.{.{.{.{.{.{.{.{.{.{.{.{.{.{.{.{.{.{.{.{.{.{.{.{.{.{."
};
