/* XPM */
static char *result[] = {
/* columns rows colors chars-per-pixel */
"64 64 223 2 ",
"   c #0A163D",
".  c #0D193E",
"X  c #04133E",
"o  c #151C3B",
"O  c #000F3E",
"+  c #1C213C",
"@  c #3D373D",
"#  c #2C2839",
"$  c #483D3D",
"%  c #523A2F",
"&  c #53443D",
"*  c #59483D",
"=  c #5B4739",
"-  c #4C403E",
";  c #664D38",
":  c #6D533A",
">  c #7A5B3A",
",  c #734E2D",
"<  c #051542",
"1  c #0D1A43",
"2  c #081944",
"3  c #121E42",
"4  c #152245",
"5  c #1B2645",
"6  c #1F2946",
"7  c #132248",
"8  c #1B2748",
"9  c #0F2048",
"0  c #212A46",
"q  c #292E43",
"w  c #232C4A",
"e  c #2D3145",
"r  c #2B334A",
"t  c #27314C",
"y  c #323444",
"u  c #383641",
"i  c #343A4C",
"p  c #3A3F4C",
"a  c #363847",
"s  c #2B3452",
"d  c #2E3A51",
"f  c #333C5A",
"g  c #433D41",
"h  c #483F40",
"j  c #3D414D",
"k  c #3B4352",
"l  c #3E4663",
"z  c #454246",
"x  c #4C4342",
"c  c #44444B",
"v  c #4C4A4B",
"b  c #544B45",
"n  c #524D4C",
"m  c #554A45",
"M  c #5D544A",
"N  c #56514C",
"B  c #464B55",
"V  c #4D535B",
"C  c #4F5153",
"Z  c #545352",
"A  c #555A5E",
"S  c #5B5A56",
"D  c #685845",
"F  c #645D52",
"G  c #7A5F43",
"H  c #6E614D",
"J  c #7C694C",
"K  c #796547",
"L  c #63645C",
"P  c #696355",
"I  c #746A54",
"U  c #7B735A",
"Y  c #797057",
"T  c #4C526C",
"R  c #5D626B",
"E  c #656965",
"W  c #787666",
"Q  c #6C726E",
"!  c #895B2C",
"~  c #935F2A",
"^  c #925C25",
"/  c #8A5D31",
"(  c #96622A",
")  c #9A652C",
"_  c #9D692E",
"`  c #966027",
"'  c #88653C",
"]  c #9D6B32",
"[  c #956936",
"{  c #97713F",
"}  c #A26C2E",
"|  c #AD712C",
" . c #B1752B",
".. c #A47334",
"X. c #A3753C",
"o. c #AB7C3B",
"O. c #AA7736",
"+. c #AB7633",
"@. c #896D46",
"#. c #836A46",
"$. c #8D734C",
"%. c #86714C",
"&. c #967648",
"*. c #867757",
"=. c #947E54",
"-. c #A37E46",
";. c #867E65",
":. c #7F8273",
">. c #B2843E",
",. c #BB8436",
"<. c #AE803E",
"1. c #C58E3A",
"2. c #9A865B",
"3. c #9F814B",
"4. c #AC8447",
"5. c #B38643",
"6. c #B58B47",
"7. c #B98E47",
"8. c #B48C4C",
"9. c #B78D4B",
"0. c #BD9146",
"q. c #BC924B",
"w. c #BF994F",
"e. c #A28C5A",
"r. c #AA935D",
"t. c #BE9651",
"y. c #B89759",
"u. c #968A69",
"i. c #86887A",
"p. c #999576",
"a. c #969173",
"s. c #A79664",
"d. c #BC9D63",
"f. c #A79971",
"g. c #B8A568",
"h. c #B6A773",
"j. c #C3964B",
"k. c #C49B4E",
"l. c #C49547",
"z. c #C39C53",
"x. c #C39B52",
"c. c #D29C44",
"v. c #C6A156",
"b. c #CAA255",
"n. c #CDA65A",
"m. c #CDAA5B",
"M. c #D4AB58",
"N. c #D4A953",
"B. c #C09F65",
"V. c #C2A263",
"C. c #C7AA66",
"Z. c #D1AE60",
"A. c #CAB26A",
"S. c #D6B464",
"D. c #D9B665",
"F. c #DCB866",
"G. c #D7BA6A",
"H. c #DBBC6A",
"J. c #D5B668",
"K. c #C7AC73",
"L. c #CCB47B",
"P. c #C9B874",
"I. c #D4BC76",
"U. c #E2BD66",
"Y. c #E6BA5B",
"T. c #DEC06E",
"R. c #DEC371",
"E. c #D8C37D",
"W. c #E4C36C",
"Q. c #EAC76D",
"!. c #E1C673",
"~. c #E4CA75",
"^. c #EDCD72",
"/. c #E4CD79",
"(. c #EAD27A",
"). c #F2D375",
"_. c #F6DA7B",
"`. c #F5D678",
"'. c #F6CE69",
"]. c #FDE07B",
"[. c #5D6382",
"{. c #6A708E",
"}. c #7D839F",
"|. c #9A9A82",
" X c #A6A788",
".X c #B7B386",
"XX c #BBBB94",
"oX c #A0A3BC",
"OX c #93979A",
"+X c #C6BB8A",
"@X c #D8C987",
"#X c #C7C599",
"$X c #DACD93",
"%X c #DDD394",
"&X c #DFDB9F",
"*X c #EBD682",
"=X c #EBDA8C",
"-X c #E8D689",
";X c #F5DE86",
":X c #E2D494",
">X c #E8DB97",
",X c #E1C886",
"<X c #F9E489",
"1X c #EDE399",
"2X c #F6E897",
"3X c #FFF29B",
"4X c #D8D8A6",
"5X c #EDEAAE",
"6X c #EAE5A6",
"7X c #F2EEAB",
"8X c #F4EAA4",
"9X c #FBF4AB",
"0X c #FCF5A7",
"qX c #EAEBB3",
"wX c #F1EEB2",
"eX c #F4F3B4",
"rX c #FEFBB5",
"tX c #FDFDBC",
"yX c #F7F6B8",
"uX c #A8ADC4",
"iX c #FFFFC2",
"pX c #D8DBE9",
"aX c None",
/* pixels */
"aXaXaXaXaXaXaXaXaXaXaXaXaXaXaXaXaXaXaXaXaXaXaXaXaXaXaXaXaXaXaXaXaXaXaXaXaXaXaXaXaXaXaXaXaXaXaXaXaXaXaXaXaXaXaXaXaXaXaXaXaXaXaXaX",
"aXaXaXaXaXaXaXaXaXaXaXaXaXaXaXaXaXaXaXaXaXaXaXaXaXaXaXaXaXaXaXaXaXaXaXaXaXaXaXaXaXaXaXaXaXaXaXaXaXaXaXaXaXaXaXaXaXaXaXaXaXaXaXaX",
"aXaXaXaXaXaXaXaXaXaXaXaXaXaXaXaXaXaXaXaXaXaXaXaXaXaXX.8.B.K.$X5XyX5X6X1XaXaXaXaXaXaXaXaXaXaXaXaXaXaXaXaXaXaXaXaXaXaXaXaXaXaXaXaX",
"aXaXaXaXaXaXaXaXaXaXaXaXaXaXaXaXaXaXaXaXaXaX.._ ( ( -.8.B.L.$X5XyXwX8X1X>X-X-X*XaXaXaXaXaXaXaXaXaXaXaXaXaXaXaXaXaXaXaXaXaXaXaXaX",
"aXaXaXaXaXaXaXaXaXaXaXaXaXaXaXaXaXaXaX7.>.O..._ ( ) O.8.B.L.:XwXyX9X7X1X1X=X=X(.~.Z.w.aXaXaXaXaXaXaXaXaXaXaXaXaXaXaXaXaXaXaXaXaX",
"aXaXaXaXaXaXaXaXaXaXaXaXaXaXaXaXaXb.w.7.>.o..._ ~ ( { =.=.u.a.|. X.X#X%X-X=X=X*X~.S.z.6.6.aXaXaXaXaXaXaXaXaXaXaXaXaXaXaXaXaXaXaX",
"aXaXaXaXaXaXaXaXaXaXaXaXaXaXaXG.Z.b.k.0.5.O.[ : $ u y 0 8 3 3 1 3 4 0 i B E p.R.~.D.v.6.6.q.t.aXaXaXaXaXaXaXaXaXaXaXaXaXaXaXaXaX",
"aXaXaXaXaXaXaXaXaXaXaXaXaXaX!.G.Z.m.k.6.#.m y 7 7 7 7 6 5 0 5 0 6 5 5 3 .     i L 2.q.q.0.q.t.z.b.aXaXaXaXaXaXaXaXaXaXaXaXaXaXaX",
"aXaXaXaXaXaXaXaXaXaXaXaX~./.!.H.D.z.$.c 8 3 7 6 0 0 6 6 6 6 6 6 0 6 0 0 0 0 6 3 < 4 z K 4.l.x.z.v.n.aXaXaXaXaXaXaXaXaXaXaXaXaXaX",
"aXaXaXaXaXaXaXaXaXaXaX!.~./.^.W.e.v 7 3 8 w 0 6 5 6 6 6 6 0 6 6 6 6 6 6 6 6 6 6 0 6 1 5 c $.t.z.v.n.Z.aXaXaXaXaXaXaXaXaXaXaXaXaX",
"aXaXaXaXaXaXaXaXaXaXR.!.~._.R.U q 1 3 0 6 6 6 6 6 0 6 6 0 6 6 6 6 6 6 6 6 6 6 6 6 6 0 6 < r 9.z.v.m.S.q.aXaXaXaXaXaXaXaXaXaXaXaX",
"aXaXaXaXaXaXaXaXaXT.R.~._.P.S 3 3 0 w 0 6 6 6 6 w 6 6 w w 6 6 6 6 6 6 6 6 0 6 6 6 6 6 5 6 #.t.z.m.M.z.o._ aXaXaXaXaXaXaXaXaXaXaX",
"aXaXaXaXaXaXaXaXT.T.~.).g.j 2 5 0 0 0 w 8 w f s s s f s 0 6 0 6 6 6 6 6 6 6 6 6 6 6 4 5 K l.x.z.M.=.5.q.5.] aXaXaXaXaXaXaXaXaXaX",
"aXaXaXaXaXaXaXH.T.W.^.g.i . 5 6 0 0 3 w 8 w l [.{.R l w 5 6 6 6 6 6 6 0 6 6 6 6 0 7 5 K l.q.j.b.J 0 M x.b.6...aXaXaXaXaXaXaXaXaX",
"aXaXaXaXaXaXD.H.T.^.g.r 1 6 6 6 w w w w 8 s l uXpXoXf w 6 6 6 0 6 6 6 6 6 6 6 0 7 5 J 0.0.q.N.J 0 3 3 F S.S.w.) aXaXaXaXaXaXaXaX",
"aXaXaXaXaXaXG.H.Q.A.j 2 6 0 6 6 3 0 0 8 8 w T oXpX{.f s 6 6 6 0 6 6 6 6 6 6 0 4 4 Y b.7.6.k.J 0 4 0 5 5 U ^.R.w.^ aXaXaXaXaXaXaX",
"aXaXaXaXaXD.J.W.G.Z 1 6 6 6 6 6 6 6 6 6 5 d T T [.T f w 5 w 0 5 6 6 6 6 0 0 7 1 *.D.z.6.l.#.0 8 0 0 6 4 w s.<X~.5.aXaXaXaXaXaXaX",
"aXaXaXaXD.D.H.W.*.3 5 6 6 6 6 6 6 6 6 6 w s s s s s s w 0 5 6 6 0 6 6 0 0 4 2 U ~.F.x.l.@.w 8 6 0 0 0 0 3 p I.<XI.] aXaXaXaXaXaX",
"aXaXaXaXD.D.W.s.0 4 w 6 6 6 6 6 0 6 6 w w 6 6 6 w 5 0 0 0 6 6 6 6 6 0 0 5 . Y -X/.S.N.@.q 8 6 6 6 6 6 6 0 3 A <X<Xv.aXaXaXaXaXaX",
"aXaXaXD.S.H.D.M < 0 q 6 6 6 6 6 6 6 6 6 6 6 6 6 0 0 5 0 6 6 6 6 6 6 0 5 1 L *X;X~.U.=.w 8 0 6 6 6 6 6 6 q 5 w f.3X@X..aXaXaXaXaX",
"aXaXaXS.D.U.u.3 6 e q 6 6 6 6 6 6 6 6 6 6 6 6 6 0 0 5 5 0 0 0 0 6 0 5 . L -X=X/.).r.r 5 6 6 6 6 6 6 6 6 q q 3 C 1X2XV.aXaXaXaXaX",
"aXaXS.S.H.Z.n 3 y u 6 6 6 6 6 6 6 6 6 6 6 6 6 6 0 0 0 0 5 0 5 5 6 5 1 L :X2X*X<Xg.a 4 6 6 6 6 6 6 6 6 6 0 y 5 0 p.0X:XX.aXaXaXaX",
"aXaXD.D.F.2.3 6 y q 5 0 6 6 6 6 6 6 6 6 6 6 6 8 5 5 8 0 0 0 0 0 5 . A >X2X=X<XP.j 3 6 6 6 6 6 6 6 6 6 6 0 y g 1 A 6X7Xy.aXaXaXaX",
"aXaXS.F.D.F 2 y x 6 6 6 6 6 6 6 6 6 6 6 6 6 q g u g u 0 0 5 0 0 4 A &X0X>X2XP.c 1 6 6 6 6 6 6 6 0 6 6 6 6 0 x 0 r XXtX@X) aXaXaX",
"aXS.S.F.V.r 4 z g 4 0 0 6 6 6 0 6 6 6 6 0 7 * | ) } ' 6 3 w 0 3 V 6X0X1X3X@Xj . 6 6 6 6 6 6 6 6 0 0 0 5 3 0 u u 4 :.iX5X4.aXaXaX",
"aXD.D.F.2.1 q x r 8 6 6 6 6 6 6 6 6 6 6 0 4 * } ~ _ ' 5 0 0 3 B 4XrX6X8X$XV . 5 0 6 6 6 6 6 6 6 0 5 0 0 w 0 u M   V qXiXg.aXaXaX",
"aXS.D.D.I < i D 5 6 6 6 6 6 6 6 6 6 6 6 0 4 * } ~ ) ' 7 w 3 g 4XiX5X9X%XV . 6 6 6 6 6 6 6 6 6 0 5 0 0 0 w 3 r H 5 d #XtXK.aXaXaX",
"aXD.D.S.Z 1 n D 3 0 6 6 6 6 6 6 6 0 6 6 w 7 * _ ( ) ' 8 3 f +XyXeXtX&XA   5 6 6 6 6 6 0 6 6 6 6 5 0 0 0 0 w w M y 5 p.8XK.) aXaX",
"aXD.D.C.a 4 F D 1 w 6 6 6 6 6 6 6 6 0 6 0 7 * _ ( _ G 3 a f.8X5XtX&XE   5 0 6 6 6 6 6 0 0 0 0 0 0 5 0 0 6 5 w m n 1 W ,XK.[ aXaX",
"J.S.F.d.0 0 F C 3 6 6 6 6 6 0 6 6 6 6 6 0 7 * } ~ _ ' r =.,X+XiXqXE   5 0 6 6 6 6 6 0 5 6 5 0 5 0 0 0 5 6 6 5 m H < M C.V.-.aXaX",
"D.D.F.r.3 q Y c 3 0 6 6 6 6 6 6 6 6 6 6 0 7 * } ( ) ' #.C.L.:X4XQ X + w 6 6 6 6 6 6 0 5 6 6 0 0 0 5 0 0 w 5 5 C *.2 v y.y.X.aXaX",
"S.D.F.2.3 r *.g 7 6 6 6 6 6 6 6 6 6 6 6 0 4 * } ~ _ -.9.B.L.:X+X5 . w 6 6 6 6 6 6 6 0 0 6 6 5 0 0 0 0 5 w w 3 C =.3 g -.-.] aXaX",
"S.D.D.2.< i $.p 3 0 6 6 6 6 6 6 6 6 6 6 0 8 m } ( ( -.8.V.L.%X5Xi.  5 0 5 6 0 6 6 6 6 6 6 6 6 0 6 6 6 6 6 6 + n 3.9 y [ ..( aXaX",
"D.D.F.e.3 i $.g 3 0 6 6 6 6 6 6 6 6 6 6 0 4 = _ ~ ( X.8.V.L.$XeXqXA   5 0 0 6 6 6 6 0 6 6 6 6 6 6 6 6 6 6 6 7 n 3.9 @ ~ _ ~ aXaX",
"S.D.F.r.7 q @.m 3 6 6 6 6 6 6 6 0 6 6 6 0 7 * } ~ ) o.8.F ;.1X6XiX#Xd   0 6 6 6 6 6 6 6 6 6 6 6 6 6 6 6 6 6 8 b J 4 @ ~ ( ( aXaX",
"S.S.D.d.6 0 > D 1 w 0 6 6 6 6 0 6 6 6 0 0 4 * } ~ } X.N 3 i XXrXyXtX X5 + 0 6 6 6 6 6 6 6 6 6 6 6 6 6 6 6 8 6 D K 2 - _ _ ) aXaX",
"aXS.D.C.i 4 : : 7 6 6 6 6 6 6 6 6 6 6 6 0 7 m _ ) / h 3 5 o A eXtXeX7XW . 5 6 6 6 6 6 6 6 6 6 6 6 0 6 6 6 8 6 > : 9 * O...( aXaX",
"aXD.F.S.Z 1 ; > 7 6 6 6 6 6 6 6 6 6 6 6 0 7 = | ~ g 8 w 6 8 8 :.iX7X9X%XB . 6 6 6 6 6 6 6 6 6 6 6 6 6 6 6 6 @ ' z 7 > ,...( aXaX",
"aXD.D.F.I < $ ! w 7 w 6 6 6 6 6 0 6 6 6 0 3 ; [ u 5 0 0 6 6 . k XXtX7X0X.Xr 3 6 6 6 6 6 6 6 6 6 6 6 6 6 6 8 @ ! q 0 ' ,.O.aXaXaX",
"aXS.D.F.2.1 @ [ & 7 6 6 6 6 6 6 6 6 6 6 5 8 g y 5 5 0 5 6 8 8 o B 4X0X1X3Xa.5 5 0 6 0 6 6 6 0 6 6 6 6 6 8 6 * ! 4 a 4.0...aXaXaX",
"aXD.S.F.V.r 4 @.@.3 6 0 6 6 0 6 6 6 6 6 0 6 6 6 6 6 6 6 6 6 6 + o E 5X8X1X=XP . 6 6 6 6 6 6 6 6 0 0 0 0 6 e &.K 9 b w.0...aXaXaX",
"aXaXD.D.D.F < H d.p 3 0 6 6 6 6 6 6 6 6 6 6 6 6 6 6 6 6 6 6 6 0 5 5 a.0X1X2XE.B o 6 6 6 6 6 6 6 5 0 5 5 5 n y.j 4 %.N.q.] aXaXaX",
"aXaXD.D.H.2.1 B @Xu.4 4 6 6 6 6 6 6 6 6 6 6 6 6 6 6 6 6 6 6 6 6 0 3 t .X3X=X<Xf.r 4 6 6 6 6 6 6 0 0 0 5 0 f.h.8 y y.M.5.aXaXaXaX",
"aXaXS.S.F.Z.n < |.6XV . 6 6 6 6 6 6 6 6 6 6 6 6 0 6 6 6 6 6 6 6 6 6 . B @X2X*X<X:.5 8 6 6 6 6 6 6 6 0 3 E 8XW   I F.Z.<.aXaXaXaX",
"aXaXaXD.D.U.e.< V yXXXw o 0 6 6 6 6 6 6 6 6 6 6 6 6 6 6 6 6 6 6 6 6 6 . W =X=X_.T.M o 8 6 6 6 6 6 0 3 p 4X4X7 r C.~.m._ aXaXaXaX",
"aXaXaXD.D.H.J.N < p.rX:.3 4 6 6 6 6 6 6 6 6 6 6 6 6 6 6 6 6 6 6 6 6 0 4 o a.<X(.(.v.j 7 6 6 6 6 6 5 4  XrXQ X U ).R.6.aXaXaXaXaX",
"aXaXaXaXD.J.U.s.4 r $X1XA . 6 6 6 6 6 6 6 6 6 6 6 6 6 6 6 6 6 6 6 6 6 0 1 d h.<X~.U.3.+ 8 + w 6 6 5 W 0Xh.2 k R.].A.] aXaXaXaXaX",
"aXaXaXaXD.D.U.Q.U X S <X@Xj 1 6 0 6 6 6 6 6 6 6 6 6 0 6 6 6 6 6 6 6 6 6 6   S E.(.S.v.D 8 8 6 6 3 S <X,Xk 4 s.].~.6.aXaXaXaXaXaX",
"aXaXaXaXaXD.H.W.G.C < ;.<XA.j 1 6 6 6 6 6 6 6 6 6 6 6 6 6 6 6 6 6 6 6 6 6 8 2 U ~.D.b.6.z 5 5 4 C E._.L O Y _.(.C.) aXaXaXaXaXaX",
"aXaXaXaXaXaXG.H.^.A.i   2.].C.c o 8 6 6 6 6 6 6 6 6 6 6 6 6 6 6 6 6 6 6 6 6 4 6 s.F.x.l.-.e 3 Z R.).Y X C !.(.D...aXaXaXaXaXaXaX",
"aXaXaXaXaXaXD.H.H.^.g.w + 2.'.g.N 8 4 6 6 6 6 6 6 6 6 6 6 6 6 6 6 6 6 6 6 6 0 . i d.b.6.l.J P S.W.*.< j A.`.R.6.aXaXaXaXaXaXaXaX",
"aXaXaXaXaXaXaXH.H.!.).g.t 4 $.Y.m.J r 7 5 8 6 6 6 6 6 6 6 6 6 6 6 6 6 6 6 6 6 6 1 n y.7.6.j.M.n.I 1 j C.).H.w.~ aXaXaXaXaXaXaXaX",
"aXaXaXaXaXaXaXaXT.T.~.`.g.d . D b.N.4.M 0 7 4 6 0 0 6 6 6 6 6 6 6 6 6 6 6 6 0 6 3 2 I 7.8.q.k.J X c A.^.R.z._ aXaXaXaXaXaXaXaXaX",
"aXaXaXaXaXaXaXaXaXT.T.~.].P.C < z 3.c.,.#.b e 4 7 7 6 6 6 6 6 6 6 6 6 6 6 7 7 4 a b &.0.l.q.k.$.S A.Q.W.z.] aXaXaXaXaXaXaXaXaXaX",
"aXaXaXaXaXaXaXaXaXaXR.~.R.].R.U 8 + D <.1.,.' : & y 6 7 7 7 7 4 7 7 7 7 0 a b : { ,.1.{ &.q.j.v.S.Q.H.x.] aXaXaXaXaXaXaXaXaXaXaX",
"aXaXaXaXaXaXaXaXaXaXaXR.~./.(.W.e.c 4 e : ..,.,...' > * & - - j z x & ; > [ O.,.,.[ & # J q.t.z.b.S.q.} aXaXaXaXaXaXaXaXaXaXaXaX",
"aXaXaXaXaXaXaXaXaXaXaXaX~./.R.T.D.v.%.z 5 q * > } | | | } } } } } } }  . . .) , @ # c K 4.7.t.z.n.j.aXaXaXaXaXaXaXaXaXaXaXaXaXaX",
"aXaXaXaXaXaXaXaXaXaXaXaXaXaX~.G.Z.m.k.6.K x # 5 q $ = , ! ! ^ ^ ~ ! , = % # + j L 2.y.0.7.q.w.v.8.aXaXaXaXaXaXaXaXaXaXaXaXaXaXaX",
"aXaXaXaXaXaXaXaXaXaXaXaXaXaXaXG.Z.v.k.0.>.o.[ : $ u e 0 3 o o + + + w k k E s.E.R.D.v.6.7.t.7.<.aXaXaXaXaXaXaXaXaXaXaXaXaXaXaXaX",
"aXaXaXaXaXaXaXaXaXaXaXaXaXaXaXaXaXv.k.8.>.<.+._ ~ ~ &.$.*.;.i.|.|. X#X$X:X-X=X(.~.D.z.6.6.<.aXaXaXaXaXaXaXaXaXaXaXaXaXaXaXaXaXaX",
"aXaXaXaXaXaXaXaXaXaXaXaXaXaXaXaXaXaXaX7.>.o...] ~ } X.8.B.L.:XwXtXeX7X2X1X=X=X_./.S.q.5.aXaXaXaXaXaXaXaXaXaXaXaXaXaXaXaXaXaXaXaX",
"aXaXaXaXaXaXaXaXaXaXaXaXaXaXaXaXaXaXaXaXaXaX..} ~ ) &.8.B.L.:XwXyXeX7X6X1X=X/.R.v.aXaXaXaXaXaXaXaXaXaXaXaXaXaXaXaXaXaXaXaXaXaXaX",
"aXaXaXaXaXaXaXaXaXaXaXaXaXaXaXaXaXaXaXaXaXaXaXaXaXaX-.l.d.K.@X>X6X%X@XR.C.aXaXaXaXaXaXaXaXaXaXaXaXaXaXaXaXaXaXaXaXaXaXaXaXaXaXaX",
"aXaXaXaXaXaXaXaXaXaXaXaXaXaXaXaXaXaXaXaXaXaXaXaXaXaXaXaXaXaXaXaXaXaXaXaXaXaXaXaXaXaXaXaXaXaXaXaXaXaXaXaXaXaXaXaXaXaXaXaXaXaXaXaX"
};
